<svg width="29" height="6" viewBox="0 0 29 6" fill="none" xmlns="http://www.w3.org/2000/svg">
<path d="M2.99717 5.0625C2.3606 5.0625 1.81034 4.81944 1.3464 4.33333C0.893248 3.83565 0.666672 3.24537 0.666672 2.5625C0.666672 1.86806 0.893248 1.27778 1.3464 0.791667C1.81034 0.305556 2.3606 0.0625 2.99717 0.0625C3.64453 0.0625 4.19479 0.305556 4.64794 0.791667C5.1011 1.27778 5.32767 1.86806 5.32767 2.5625C5.32767 3.01389 5.21978 3.43056 5.00399 3.8125C4.799 4.19444 4.51847 4.50116 4.16242 4.73264C3.81716 4.95255 3.42875 5.0625 2.99717 5.0625Z" fill="#9B9A97"/>
<path d="M14.6667 5.0625C14.0301 5.0625 13.4798 4.81944 13.0159 4.33333C12.5627 3.83565 12.3362 3.24537 12.3362 2.5625C12.3362 1.86806 12.5627 1.27778 13.0159 0.791667C13.4798 0.305556 14.0301 0.0625 14.6667 0.0625C15.314 0.0625 15.8643 0.305556 16.3174 0.791667C16.7706 1.27778 16.9972 1.86806 16.9972 2.5625C16.9972 3.01389 16.8893 3.43056 16.6735 3.8125C16.4685 4.19444 16.188 4.50116 15.8319 4.73264C15.4867 4.95255 15.0982 5.0625 14.6667 5.0625Z" fill="#9B9A97"/>
<path d="M26.3362 5.0625C25.6996 5.0625 25.1493 4.81944 24.6854 4.33333C24.2322 3.83565 24.0057 3.24537 24.0057 2.5625C24.0057 1.86806 24.2322 1.27778 24.6854 0.791667C25.1493 0.305556 25.6996 0.0625 26.3362 0.0625C26.9835 0.0625 27.5338 0.305556 27.9869 0.791667C28.4401 1.27778 28.6667 1.86806 28.6667 2.5625C28.6667 3.01389 28.5588 3.43056 28.343 3.8125C28.138 4.19444 27.8575 4.50116 27.5014 4.73264C27.1562 4.95255 26.7677 5.0625 26.3362 5.0625Z" fill="#9B9A97"/>
</svg>
