<svg width="29" height="6" viewBox="0 0 29 6" fill="none" xmlns="http://www.w3.org/2000/svg">
<path d="M2.66384 5.0625C2.02727 5.0625 1.47702 4.81944 1.01307 4.33333C0.55992 3.83565 0.333344 3.24537 0.333344 2.5625C0.333344 1.86806 0.55992 1.27778 1.01307 0.791667C1.47702 0.305556 2.02727 0.0625 2.66384 0.0625C3.31121 0.0625 3.86146 0.305556 4.31462 0.791667C4.76777 1.27778 4.99435 1.86806 4.99435 2.5625C4.99435 3.01389 4.88645 3.43056 4.67067 3.8125C4.46567 4.19444 4.18514 4.50116 3.8291 4.73264C3.48384 4.95255 3.09542 5.0625 2.66384 5.0625Z" fill="#9B9A97"/>
<path d="M14.3333 5.0625C13.6968 5.0625 13.1465 4.81944 12.6826 4.33333C12.2294 3.83565 12.0028 3.24537 12.0028 2.5625C12.0028 1.86806 12.2294 1.27778 12.6826 0.791667C13.1465 0.305556 13.6968 0.0625 14.3333 0.0625C14.9807 0.0625 15.531 0.305556 15.9841 0.791667C16.4373 1.27778 16.6638 1.86806 16.6638 2.5625C16.6638 3.01389 16.556 3.43056 16.3402 3.8125C16.1352 4.19444 15.8546 4.50116 15.4986 4.73264C15.1533 4.95255 14.7649 5.0625 14.3333 5.0625Z" fill="#9B9A97"/>
<path d="M26.0028 5.0625C25.3663 5.0625 24.816 4.81944 24.3521 4.33333C23.8989 3.83565 23.6723 3.24537 23.6723 2.5625C23.6723 1.86806 23.8989 1.27778 24.3521 0.791667C24.816 0.305556 25.3663 0.0625 26.0028 0.0625C26.6502 0.0625 27.2005 0.305556 27.6536 0.791667C28.1068 1.27778 28.3333 1.86806 28.3333 2.5625C28.3333 3.01389 28.2254 3.43056 28.0097 3.8125C27.8047 4.19444 27.5241 4.50116 27.1681 4.73264C26.8228 4.95255 26.4344 5.0625 26.0028 5.0625Z" fill="#9B9A97"/>
</svg>
