<svg width="17" height="17" viewBox="0 0 17 17" fill="none" xmlns="http://www.w3.org/2000/svg">
<g clip-path="url(#clip0_7_18)">
<path d="M8.71079 16.0368C12.9166 16.0368 16.3799 12.5735 16.3799 8.36765C16.3799 4.16912 12.9093 0.698532 8.70343 0.698532C4.5049 0.698532 1.04167 4.16912 1.04167 8.36765C1.04167 12.5735 4.5049 16.0368 8.71079 16.0368ZM8.71079 14.353C5.39461 14.353 2.73285 11.6838 2.73285 8.36765C2.73285 5.05147 5.38725 2.38236 8.70343 2.38236C12.027 2.38236 14.6887 5.05147 14.696 8.36765C14.7035 11.6838 12.027 14.353 8.71079 14.353ZM7.32108 11.2794L11.5785 8.78677C11.8946 8.60295 11.8873 8.14706 11.5785 7.96324L7.32108 5.46324C6.9902 5.27206 6.56373 5.43383 6.56373 5.80147V10.9412C6.56373 11.3015 6.96814 11.4853 7.32108 11.2794Z" fill="#5B97BD"/>
</g>
<defs>
<clipPath id="clip0_7_18">
<rect width="16" height="16" fill="white" transform="translate(0.666672 0.5)"/>
</clipPath>
</defs>
</svg>
